{
  "accessors": [
    {
      "bufferView": 3,
      "componentType": 5126,
      "count": 2066,
      "max": [
        1.7115029096603394,
        5.928788185119629,
        2.3725838661193848
      ],
      "min": [
        -1.7115027904510498,
        0.024891376495361328,
        -4.523646354675293
      ],
      "type": "VEC3"
    },
    {
      "bufferView": 3,
      "byteOffset": 24792,
      "componentType": 5126,
      "count": 2066,
      "max": [
        0.9992762804031372,
        0.9999972581863403,
        0.9994497299194336
      ],
      "min": [
        -0.9992762804031372,
        -0.9999988079071045,
        -0.9995901584625244
      ],
      "type": "VEC3"
    },
    {
      "bufferView": 2,
      "componentType": 5126,
      "count": 2066,
      "max": [
        1.0,
        0.9999999403953552
      ],
      "min": [
        0.0,
        0.0
      ],
      "type": "VEC2"
    },
    {
      "bufferView": 1,
      "componentType": 5125,
      "count": 8784,
      "type": "SCALAR"
    },
    {
      "bufferView": 3,
      "byteOffset": 49584,
      "componentType": 5126,
      "count": 1205,
      "max": [
        834.2144775390625,
        -584.6683349609375,
        -296.19256591796875
      ],
      "min": [
        -834.21435546875,
        -981.2655639648438,
        -692.7898559570313
      ],
      "type": "VEC3"
    },
    {
      "bufferView": 3,
      "byteOffset": 64044,
      "componentType": 5126,
      "count": 1205,
      "max": [
        1.0,
        1.0,
        1.0
      ],
      "min": [
        -1.0,
        -1.0,
        -1.0
      ],
      "type": "VEC3"
    },
    {
      "bufferView": 2,
      "byteOffset": 16528,
      "componentType": 5126,
      "count": 1205,
      "max": [
        1.0,
        1.0
      ],
      "min": [
        0.0,
        0.0
      ],
      "type": "VEC2"
    },
    {
      "bufferView": 1,
      "byteOffset": 35136,
      "componentType": 5125,
      "count": 5796,
      "type": "SCALAR"
    },
    {
      "bufferView": 5,
      "componentType": 5126,
      "count": 15,
      "max": [
        124.4274673461914,
        0.11818066984415054,
        7.850569818401709e-05,
        0.0,
        0.07887348532676697,
        82.95166015625,
        0.8249279856681824,
        0.0,
        0.002142044249922037,
        0.8295035362243652,
        82.95166015625,
        0.0,
        0.7121570110321045,
        1.704643726348877,
        1.980858564376831,
        1.0
      ],
      "min": [
        1.0,
        -0.11818115413188934,
        -8.547905963496305e-06,
        0.0,
        -0.07887379825115204,
        -0.8242307901382446,
        -0.8282666802406311,
        0.0,
        -0.0021420465782284737,
        -0.8261197209358215,
        -0.8292080760002136,
        0.0,
        -0.7121562957763672,
        -4.239107608795166,
        -1.8168303966522217,
        1.0
      ],
      "type": "MAT4"
    },
    {
      "bufferView": 0,
      "componentType": 5123,
      "count": 2066,
      "type": "VEC4"
    },
    {
      "bufferView": 4,
      "componentType": 5126,
      "count": 2066,
      "max": [
        1.0,
        0.49871569871902466,
        0.28608742356300354,
        0.17794114351272583
      ],
      "min": [
        0.3218287527561188,
        0.0,
        0.0,
        0.0
      ],
      "type": "VEC4"
    },
    {
      "bufferView": 0,
      "byteOffset": 16528,
      "componentType": 5123,
      "count": 1205,
      "type": "VEC4"
    },
    {
      "bufferView": 4,
      "byteOffset": 33056,
      "componentType": 5126,
      "count": 1205,
      "max": [
        1.0,
        0.05334162712097168,
        0.03403440862894058,
        0.0
      ],
      "min": [
        0.9299495816230774,
        0.0,
        0.0,
        0.0
      ],
      "type": "VEC4"
    },
    {
      "bufferView": 6,
      "componentType": 5126,
      "count": 277,
      "max": [
        5.791666507720947
      ],
      "min": [
        0.0
      ],
      "type": "SCALAR"
    },
    {
      "bufferView": 7,
      "componentType": 5126,
      "count": 277,
      "max": [
        -0.2552398443222046,
        0.009586883708834648,
        0.06293941289186478,
        0.9647316336631775
      ],
      "min": [
        -0.3772694170475006,
        -0.013587255030870438,
        -0.03999710828065872,
        0.925195038318634
      ],
      "type": "VEC4"
    },
    {
      "bufferView": 6,
      "byteOffset": 1108,
      "componentType": 5126,
      "count": 259,
      "max": [
        5.791666507720947
      ],
      "min": [
        0.0
      ],
      "type": "SCALAR"
    },
    {
      "bufferView": 7,
      "byteOffset": 4432,
      "componentType": 5126,
      "count": 259,
      "max": [
        0.33290043473243713,
        7.49613988659803e-08,
        3.519771141213823e-08,
        0.9771904945373535
      ],
      "min": [
        0.21236452460289001,
        7.111802347026241e-08,
        2.6027700883446414e-08,
        0.9429619908332825
      ],
      "type": "VEC4"
    },
    {
      "bufferView": 6,
      "byteOffset": 2144,
      "componentType": 5126,
      "count": 208,
      "max": [
        5.791666507720947
      ],
      "min": [
        0.0
      ],
      "type": "SCALAR"
    },
    {
      "bufferView": 7,
      "byteOffset": 8576,
      "componentType": 5126,
      "count": 208,
      "max": [
        0.9988448619842529,
        4.029141109640477e-06,
        3.145479422528297e-05,
        -0.04805181175470352
      ],
      "min": [
        0.9917029738426208,
        1.4940876553737326e-06,
        3.123143324046396e-05,
        -0.12855027616024017
      ],
      "type": "VEC4"
    },
    {
      "bufferView": 6,
      "byteOffset": 2976,
      "componentType": 5126,
      "count": 277,
      "max": [
        5.791666507720947
      ],
      "min": [
        0.0
      ],
      "type": "SCALAR"
    },
    {
      "bufferView": 7,
      "byteOffset": 11904,
      "componentType": 5126,
      "count": 277,
      "max": [
        0.7178260684013367,
        0.03414888679981232,
        -0.03303377330303192,
        0.7064927220344543
      ],
      "min": [
        0.7061253786087036,
        0.03354876860976219,
        -0.033607397228479385,
        0.6945993900299072
      ],
      "type": "VEC4"
    },
    {
      "bufferView": 6,
      "byteOffset": 4084,
      "componentType": 5126,
      "count": 271,
      "max": [
        5.791666507720947
      ],
      "min": [
        0.0
      ],
      "type": "SCALAR"
    },
    {
      "bufferView": 7,
      "byteOffset": 16336,
      "componentType": 5126,
      "count": 271,
      "max": [
        0.7280911803245544,
        -0.034186139702796936,
        0.04691048711538315,
        0.6945972442626953
      ],
      "min": [
        0.7178239822387695,
        -0.04772784933447838,
        0.033086150884628296,
        0.6822201609611511
      ],
      "type": "VEC4"
    }
  ],
  "animations": [
    {
      "channels": [
        {
          "sampler": 0,
          "target": {
            "node": 14,
            "path": "rotation"
          }
        },
        {
          "sampler": 1,
          "target": {
            "node": 17,
            "path": "rotation"
          }
        },
        {
          "sampler": 2,
          "target": {
            "node": 16,
            "path": "rotation"
          }
        },
        {
          "sampler": 3,
          "target": {
            "node": 19,
            "path": "rotation"
          }
        },
        {
          "sampler": 4,
          "target": {
            "node": 25,
            "path": "rotation"
          }
        }
      ],
      "name": "Esqueleto|EsqueletoAction",
      "samplers": [
        {
          "input": 13,
          "interpolation": "LINEAR",
          "output": 14
        },
        {
          "input": 15,
          "interpolation": "LINEAR",
          "output": 16
        },
        {
          "input": 17,
          "interpolation": "LINEAR",
          "output": 18
        },
        {
          "input": 19,
          "interpolation": "LINEAR",
          "output": 20
        },
        {
          "input": 21,
          "interpolation": "LINEAR",
          "output": 22
        }
      ]
    }
  ],
  "asset": {
    "extras": {
      "author": "DrawerG (https://sketchfab.com/DrawerG)",
      "license": "CC-BY-4.0 (http://creativecommons.org/licenses/by/4.0/)",
      "source": "https://sketchfab.com/3d-models/leonardo-9f100e87eddb40f68faa30c220758671",
      "title": "Leonardo"
    },
    "generator": "Sketchfab-12.44.0",
    "version": "2.0"
  },
  "bufferViews": [
    {
      "buffer": 0,
      "byteLength": 26168,
      "byteStride": 8,
      "name": "shortBufferViews",
      "target": 34962
    },
    {
      "buffer": 0,
      "byteLength": 58320,
      "byteOffset": 26168,
      "name": "floatBufferViews",
      "target": 34963
    },
    {
      "buffer": 0,
      "byteLength": 26168,
      "byteOffset": 84488,
      "byteStride": 8,
      "name": "floatBufferViews",
      "target": 34962
    },
    {
      "buffer": 0,
      "byteLength": 78504,
      "byteOffset": 110656,
      "byteStride": 12,
      "name": "floatBufferViews",
      "target": 34962
    },
    {
      "buffer": 0,
      "byteLength": 52336,
      "byteOffset": 189160,
      "byteStride": 16,
      "name": "floatBufferViews",
      "target": 34962
    },
    {
      "buffer": 0,
      "byteLength": 960,
      "byteOffset": 241496,
      "name": "floatBufferViews"
    },
    {
      "buffer": 0,
      "byteLength": 5168,
      "byteOffset": 242456,
      "name": "floatBufferViews"
    },
    {
      "buffer": 0,
      "byteLength": 20672,
      "byteOffset": 247624,
      "byteStride": 16,
      "name": "floatBufferViews"
    }
  ],
  "buffers": [
    {
      "byteLength": 268296,
      "uri": "scene.bin"
    }
  ],
  "images": [
    {
      "uri": "textures/Material.001_baseColor.png"
    },
    {
      "uri": "textures/Material.002_baseColor.png"
    }
  ],
  "materials": [
    {
      "doubleSided": true,
      "name": "Material.001",
      "pbrMetallicRoughness": {
        "baseColorTexture": {
          "index": 0
        },
        "metallicFactor": 0.0,
        "roughnessFactor": 0.7470177871865296
      }
    },
    {
      "doubleSided": true,
      "name": "Material.002",
      "pbrMetallicRoughness": {
        "baseColorTexture": {
          "index": 1
        },
        "metallicFactor": 0.0,
        "roughnessFactor": 0.7470177871865296
      }
    }
  ],
  "meshes": [
    {
      "name": "Cuerpo_Material.001_0",
      "primitives": [
        {
          "attributes": {
            "JOINTS_0": 9,
            "NORMAL": 1,
            "POSITION": 0,
            "TEXCOORD_0": 2,
            "WEIGHTS_0": 10
          },
          "indices": 3,
          "material": 0,
          "mode": 4
        }
      ]
    },
    {
      "name": "Ojos_Material.002_0",
      "primitives": [
        {
          "attributes": {
            "JOINTS_0": 11,
            "NORMAL": 5,
            "POSITION": 4,
            "TEXCOORD_0": 6,
            "WEIGHTS_0": 12
          },
          "indices": 7,
          "material": 1,
          "mode": 4
        }
      ]
    }
  ],
  "nodes": [
    {
      "children": [
        1
      ],
      "matrix": [
        1.0,
        0.0,
        0.0,
        0.0,
        0.0,
        2.220446049250313e-16,
        -1.0,
        0.0,
        0.0,
        1.0,
        2.220446049250313e-16,
        0.0,
        0.0,
        0.0,
        0.0,
        1.0
      ],
      "name": "Sketchfab_model"
    },
    {
      "children": [
        2
      ],
      "matrix": [
        0.009999999776482582,
        0.0,
        0.0,
        0.0,
        0.0,
        0.0,
        0.009999999776482582,
        0.0,
        0.0,
        -0.009999999776482582,
        0.0,
        0.0,
        0.0,
        0.0,
        0.0,
        1.0
      ],
      "name": "Leonardo.fbx"
    },
    {
      "children": [
        3
      ],
      "name": "Object_2"
    },
    {
      "children": [
        4,
        5,
        6
      ],
      "name": "RootNode"
    },
    {
      "name": "Cuerpo",
      "rotation": [
        -0.5000000596046448,
        0.49999991059303284,
        0.5,
        0.5
      ],
      "scale": [
        124.42748260498047,
        82.95166015625,
        82.95166015625
      ],
      "translation": [
        0.0,
        197.2677459716797,
        0.0
      ]
    },
    {
      "name": "Ojos",
      "rotation": [
        -0.7071068286895752,
        0.0,
        0.0,
        0.7071067094802856
      ],
      "scale": [
        21.88292694091797,
        21.88292694091797,
        21.88292694091797
      ],
      "translation": [
        0.0,
        283.2951354980469,
        155.0105743408203
      ]
    },
    {
      "children": [
        7
      ],
      "name": "Esqueleto",
      "rotation": [
        -0.7071068286895752,
        0.0,
        0.0,
        0.7071067094802856
      ],
      "scale": [
        100.0,
        100.0,
        100.0
      ]
    },
    {
      "children": [
        8,
        10,
        12,
        9,
        11
      ],
      "name": "Object_7"
    },
    {
      "children": [
        13
      ],
      "name": "_rootJoint"
    },
    {
      "matrix": [
        5.438911550691927e-06,
        0.0,
        -124.42746931892896,
        0.0,
        -82.95165929128021,
        -6.051501279574615e-10,
        -3.625941605482528e-06,
        0.0,
        -6.051501185260432e-10,
        82.95165799845772,
        -2.6452020502945133e-17,
        0.0,
        1.5469197038229208e-09,
        197.26774884135816,
        -1.6971879489346975e-05,
        1.0
      ],
      "name": "Object_9"
    },
    {
      "mesh": 0,
      "name": "Object_10",
      "skin": 0
    },
    {
      "matrix": [
        21.882926013935524,
        7.16823809511491e-11,
        -3.506453008267525e-13,
        0.0,
        -3.5064526821757475e-13,
        -6.9681191740480684e-09,
        -21.882925403367377,
        0.0,
        -7.168237925056642e-11,
        21.882925494753998,
        -6.968119203148055e-09,
        0.0,
        7.030327743573483e-10,
        283.29513663748753,
        155.01054032941056,
        1.0
      ],
      "name": "Object_11"
    },
    {
      "mesh": 1,
      "name": "Object_12",
      "skin": 0
    },
    {
      "children": [
        14,
        16,
        19,
        21,
        23,
        25
      ],
      "name": "Centro_00",
      "rotation": [
        0.9999960660934448,
        8.827168329617052e-08,
        3.13987402478233e-05,
        0.0028092386201024055
      ],
      "scale": [
        1.0,
        1.0,
        1.001493215560913
      ],
      "translation": [
        0.0,
        1.6302714347839355,
        1.9746949672698975
      ]
    },
    {
      "children": [
        15
      ],
      "name": "Cabeza_01",
      "rotation": [
        -0.2983798384666443,
        -0.00022787075431551784,
        0.0010390372481197119,
        0.9544466137886047
      ],
      "scale": [
        0.9999999403953552,
        1.0000001192092896,
        1.0
      ],
      "translation": [
        -1.1063158202040402e-11,
        2.2502694129943848,
        -6.123445928096771e-08
      ]
    },
    {
      "name": "Cabeza_end_08",
      "rotation": [
        8.326672684688674e-17,
        -1.0842021724855044e-19,
        2.168404344971009e-19,
        1.0
      ],
      "translation": [
        -4.336808689942018e-19,
        2.1857635974884033,
        4.440892098500626e-16
      ]
    },
    {
      "children": [
        17
      ],
      "name": "Cola_02",
      "rotation": [
        0.9987775087356567,
        1.5379077922261786e-06,
        3.1452684197574854e-05,
        -0.04943162947893143
      ],
      "scale": [
        1.0,
        0.9999999403953552,
        0.9999773502349854
      ],
      "translation": [
        -1.7070314346084858e-12,
        5.029141902923584e-08,
        -7.078051567077637e-08
      ]
    },
    {
      "children": [
        18
      ],
      "name": "Cola2_03",
      "rotation": [
        0.21340642869472504,
        7.115552591585583e-08,
        3.5121853869668485e-08,
        0.9769635200500488
      ],
      "scale": [
        1.0,
        0.9999999403953552,
        1.0
      ],
      "translation": [
        1.226796442210798e-14,
        2.0289242267608643,
        -2.9802322387695313e-08
      ]
    },
    {
      "name": "Cola2_end_09",
      "rotation": [
        0.0,
        0.0,
        1.3234889800848443e-23,
        1.0
      ],
      "translation": [
        0.0,
        1.8512213230133057,
        6.661338147750939e-16
      ]
    },
    {
      "children": [
        20
      ],
      "name": "L.brazo_04",
      "rotation": [
        0.7176291346549988,
        0.03413306549191475,
        -0.03305068612098694,
        0.6948028802871704
      ],
      "scale": [
        1.0,
        1.0000001192092896,
        1.0
      ],
      "translation": [
        0.41329318284988403,
        1.9963358640670776,
        0.24051077663898468
      ]
    },
    {
      "name": "L.brazo_end_010",
      "rotation": [
        -1.369450918707965e-36,
        -4.336808689942018e-19,
        -3.1577388273640317e-18,
        1.0
      ],
      "translation": [
        0.0,
        1.694767951965332,
        0.0
      ]
    },
    {
      "children": [
        22
      ],
      "name": "R.brazo_05",
      "rotation": [
        0.7178240418434143,
        -0.034186143428087234,
        0.033086150884628296,
        0.6945973038673401
      ],
      "scale": [
        0.9999998807907104,
        1.0,
        1.0
      ],
      "translation": [
        -0.41332337260246277,
        1.996335744857788,
        0.24045893549919128
      ]
    },
    {
      "name": "R.brazo_end_011",
      "rotation": [
        -1.8117306682048506e-36,
        -6.505213034913027e-19,
        -2.7850443305721395e-18,
        1.0
      ],
      "translation": [
        1.1102230246251565e-16,
        1.694767951965332,
        -5.551115123125783e-17
      ]
    },
    {
      "children": [
        24
      ],
      "name": "L.pata_06",
      "rotation": [
        0.7178260684013367,
        0.03414243459701538,
        -0.03304100036621094,
        0.6945993900299072
      ],
      "scale": [
        1.0,
        1.0000001192092896,
        1.0
      ],
      "translation": [
        0.5545934438705444,
        0.205232635140419,
        0.2533915638923645
      ]
    },
    {
      "name": "L.pata_end_012",
      "rotation": [
        1.734723475976807e-18,
        1.0696998592482816e-35,
        6.1663998560113065e-18,
        1.0
      ],
      "translation": [
        -1.1102230246251565e-16,
        1.694767951965332,
        0.0
      ]
    },
    {
      "children": [
        26
      ],
      "name": "R.pata_07",
      "rotation": [
        0.7180019021034241,
        -0.0344141349196434,
        0.03331918641924858,
        0.6943909525871277
      ],
      "scale": [
        0.9999998211860657,
        1.0,
        1.0
      ],
      "translation": [
        -0.5546252727508545,
        0.205232635140419,
        0.253322035074234
      ]
    },
    {
      "name": "R.pata_end_013",
      "rotation": [
        2.530251590144974e-36,
        -4.336808689942018e-19,
        5.834362940687621e-18,
        1.0
      ],
      "translation": [
        -1.1102230246251565e-16,
        1.694767951965332,
        0.0
      ]
    }
  ],
  "samplers": [
    {
      "magFilter": 9729,
      "minFilter": 9987,
      "wrapS": 10497,
      "wrapT": 10497
    }
  ],
  "scene": 0,
  "scenes": [
    {
      "name": "Sketchfab_Scene",
      "nodes": [
        0
      ]
    }
  ],
  "skins": [
    {
      "inverseBindMatrices": 8,
      "joints": [
        8,
        13,
        14,
        15,
        16,
        17,
        18,
        19,
        20,
        21,
        22,
        23,
        24,
        25,
        26
      ],
      "skeleton": 8
    }
  ],
  "textures": [
    {
      "sampler": 0,
      "source": 0
    },
    {
      "sampler": 0,
      "source": 1
    }
  ]
}
