{
    "asset" : {
        "generator" : "Khronos glTF Blender I/O v1.4.40",
        "version" : "2.0"
    },
    "extensionsUsed" : [
        "KHR_lights_punctual"
    ],
    "extensionsRequired" : [
        "KHR_lights_punctual"
    ],
    "extensions" : {
        "KHR_lights_punctual" : {
            "lights" : [
                {
                    "color" : [
                        1,
                        1,
                        1
                    ],
                    "intensity" : 100,
                    "type" : "point",
                    "name" : "Point.039"
                },
                {
                    "color" : [
                        1,
                        1,
                        1
                    ],
                    "intensity" : 100,
                    "type" : "point",
                    "name" : "Point.040"
                },
                {
                    "color" : [
                        1,
                        1,
                        1
                    ],
                    "intensity" : 100,
                    "type" : "point",
                    "name" : "Point.041"
                }
            ]
        }
    },
    "scene" : 0,
    "scenes" : [
        {
            "name" : "Scene",
            "nodes" : [
                0,
                3,
                6,
                9
            ]
        }
    ],
    "nodes" : [
        {
            "mesh" : 0,
            "name" : "Sphere",
            "scale" : [
                0.6523439288139343,
                0.6523439288139343,
                0.6523439288139343
            ],
            "translation" : [
                5.980044841766357,
                7.563691139221191,
                -4.129676818847656
            ]
        },
        {
            "extensions" : {
                "KHR_lights_punctual" : {
                    "light" : 0
                }
            },
            "name" : "Point_Orientation.002_Orientation",
            "rotation" : [
                -0.7071067690849304,
                0,
                0,
                0.7071067690849304
            ]
        },
        {
            "children" : [
                1
            ],
            "name" : "Point_Orientation.002"
        },
        {
            "children" : [
                2
            ],
            "name" : "Point.023",
            "scale" : [
                0.6523439288139343,
                0.6523439288139343,
                0.6523439288139343
            ],
            "translation" : [
                5.158031463623047,
                8.053329467773438,
                -3.7220840454101562
            ]
        },
        {
            "extensions" : {
                "KHR_lights_punctual" : {
                    "light" : 1
                }
            },
            "name" : "Point.001_Orientation.001_Orientation",
            "rotation" : [
                -0.7071067690849304,
                0,
                0,
                0.7071067690849304
            ]
        },
        {
            "children" : [
                4
            ],
            "name" : "Point.001_Orientation.001"
        },
        {
            "children" : [
                5
            ],
            "name" : "Point.025",
            "scale" : [
                0.6523439288139343,
                0.6523439288139343,
                0.6523439288139343
            ],
            "translation" : [
                5.950076103210449,
                8.381342887878418,
                -5.050161361694336
            ]
        },
        {
            "extensions" : {
                "KHR_lights_punctual" : {
                    "light" : 2
                }
            },
            "name" : "Point.002_Orientation.002_Orientation",
            "rotation" : [
                -0.7071067690849304,
                0,
                0,
                0.7071067690849304
            ]
        },
        {
            "children" : [
                7
            ],
            "name" : "Point.002_Orientation.002"
        },
        {
            "children" : [
                8
            ],
            "name" : "Point.026",
            "scale" : [
                0.6523439288139343,
                0.6523439288139343,
                0.6523439288139343
            ],
            "translation" : [
                6.733558177947998,
                8.405790328979492,
                -3.547417640686035
            ]
        }
    ],
    "materials" : [
        {
            "doubleSided" : true,
            "name" : "Material.003",
            "pbrMetallicRoughness" : {
                "baseColorFactor" : [
                    0.800000011920929,
                    0.800000011920929,
                    0.800000011920929,
                    1
                ],
                "metallicFactor" : 0.960629940032959,
                "roughnessFactor" : 0.12992125749588013
            }
        }
    ],
    "meshes" : [
        {
            "name" : "Sphere",
            "primitives" : [
                {
                    "attributes" : {
                        "POSITION" : 0,
                        "NORMAL" : 1,
                        "TEXCOORD_0" : 2
                    },
                    "indices" : 3,
                    "material" : 0
                }
            ]
        }
    ],
    "accessors" : [
        {
            "bufferView" : 0,
            "componentType" : 5126,
            "count" : 508,
            "max" : [
                1.000000238418579,
                1,
                1.0000003576278687
            ],
            "min" : [
                -0.9999998211860657,
                -1,
                -1
            ],
            "type" : "VEC3"
        },
        {
            "bufferView" : 1,
            "componentType" : 5126,
            "count" : 508,
            "type" : "VEC3"
        },
        {
            "bufferView" : 2,
            "componentType" : 5126,
            "count" : 508,
            "type" : "VEC2"
        },
        {
            "bufferView" : 3,
            "componentType" : 5123,
            "count" : 2880,
            "type" : "SCALAR"
        }
    ],
    "bufferViews" : [
        {
            "buffer" : 0,
            "byteLength" : 6096,
            "byteOffset" : 0
        },
        {
            "buffer" : 0,
            "byteLength" : 6096,
            "byteOffset" : 6096
        },
        {
            "buffer" : 0,
            "byteLength" : 4064,
            "byteOffset" : 12192
        },
        {
            "buffer" : 0,
            "byteLength" : 5760,
            "byteOffset" : 16256
        }
    ],
    "buffers" : [
        {
            "byteLength" : 22016,
            "uri" : "data:application/octet-stream;base64,"
        }
    ]
}
