{
    "asset" : {
        "generator" : "Khronos glTF Blender I/O v1.4.40",
        "version" : "2.0"
    },
    "extensionsUsed" : [
        "KHR_lights_punctual"
    ],
    "extensionsRequired" : [
        "KHR_lights_punctual"
    ],
    "extensions" : {
        "KHR_lights_punctual" : {
            "lights" : [
                {
                    "color" : [
                        0.9098436236381531,
                        0.9645521640777588,
                        1
                    ],
                    "intensity" : 1000,
                    "type" : "point",
                    "name" : "Point.057"
                }
            ]
        }
    },
    "scene" : 0,
    "scenes" : [
        {
            "name" : "Scene",
            "nodes" : [
                7,
                8,
                9
            ]
        }
    ],
    "nodes" : [
        {
            "extensions" : {
                "KHR_lights_punctual" : {
                    "light" : 0
                }
            },
            "name" : "Point.009_Orientation.008_Orientation_Orientation_Orientati.003_Orientation",
            "rotation" : [
                -0.7071067690849304,
                0,
                0,
                0.7071067690849304
            ]
        },
        {
            "children" : [
                0
            ],
            "name" : "Point.009_Orientation.008_Orientation_Orientation_Orientati.003"
        },
        {
            "children" : [
                1
            ],
            "name" : "Point.009_Orientation.008_Orientation_Orientation_Orientati_Ori"
        },
        {
            "children" : [
                2
            ],
            "name" : "Point.009_Orientation.008_Orientation_Orientation_Orientati",
            "translation" : [
                14.693144798278809,
                3.6838109493255615,
                -14.587509155273438
            ]
        },
        {
            "children" : [
                3
            ],
            "name" : "Point.009_Orientation.008_Orientation_Orientation"
        },
        {
            "children" : [
                4
            ],
            "name" : "Point.009_Orientation.008_Orientation"
        },
        {
            "children" : [
                5
            ],
            "name" : "Point.009_Orientation.008",
            "scale" : [
                1.5442548990249634,
                1.5442548990249634,
                1.5442548990249634
            ],
            "translation" : [
                -40.671138763427734,
                -3.1811211109161377,
                9.953302383422852
            ]
        },
        {
            "children" : [
                6
            ],
            "name" : "Point.009",
            "translation" : [
                23.482027053833008,
                5.571115016937256,
                4.901042938232422
            ]
        },
        {
            "mesh" : 0,
            "name" : "Stem",
            "rotation" : [
                -0.013563004322350025,
                -0.9278284907341003,
                -0.2477983981370926,
                0.2784714102745056
            ],
            "scale" : [
                24.620302200317383,
                24.620302200317383,
                24.62030029296875
            ],
            "translation" : [
                5.079603672027588,
                3.945707321166992,
                -10.237967491149902
            ]
        },
        {
            "mesh" : 1,
            "name" : "Text",
            "rotation" : [
                0.6532815098762512,
                0.27059805393218994,
                -0.27059805393218994,
                0.6532814502716064
            ],
            "scale" : [
                0.625864565372467,
                0.625864565372467,
                0.6258644461631775
            ],
            "translation" : [
                4.863996505737305,
                8.776780128479004,
                -8.214157104492188
            ]
        }
    ],
    "materials" : [
        {
            "doubleSided" : true,
            "name" : "DefaultMaterial.001",
            "pbrMetallicRoughness" : {
                "baseColorFactor" : [
                    0.6000000238418579,
                    0.6000000238418579,
                    0.6000000238418579,
                    1
                ],
                "metallicFactor" : 0.9900000095367432,
                "roughnessFactor" : 0.11023621261119843
            }
        },
        {
            "doubleSided" : true,
            "name" : "Material.004",
            "pbrMetallicRoughness" : {
                "baseColorFactor" : [
                    0.800000011920929,
                    0.800000011920929,
                    0.800000011920929,
                    1
                ],
                "metallicFactor" : 0,
                "roughnessFactor" : 0.5
            }
        }
    ],
    "meshes" : [
        {
            "name" : "meshId0_name.001",
            "primitives" : [
                {
                    "attributes" : {
                        "POSITION" : 0,
                        "NORMAL" : 1,
                        "TANGENT" : 2,
                        "TEXCOORD_0" : 3
                    },
                    "indices" : 4,
                    "material" : 0
                }
            ]
        },
        {
            "name" : "Text",
            "primitives" : [
                {
                    "attributes" : {
                        "POSITION" : 5,
                        "NORMAL" : 6,
                        "TANGENT" : 7,
                        "TEXCOORD_0" : 8
                    },
                    "indices" : 9,
                    "material" : 1
                }
            ]
        }
    ],
    "accessors" : [
        {
            "bufferView" : 0,
            "componentType" : 5126,
            "count" : 4147,
            "max" : [
                0.07397100329399109,
                0.1751679927110672,
                0.048278000205755234
            ],
            "min" : [
                -0.05650300160050392,
                -2.5999999706982635e-05,
                -0.061232998967170715
            ],
            "type" : "VEC3"
        },
        {
            "bufferView" : 1,
            "componentType" : 5126,
            "count" : 4147,
            "type" : "VEC3"
        },
        {
            "bufferView" : 2,
            "componentType" : 5126,
            "count" : 4147,
            "type" : "VEC4"
        },
        {
            "bufferView" : 3,
            "componentType" : 5126,
            "count" : 4147,
            "type" : "VEC2"
        },
        {
            "bufferView" : 4,
            "componentType" : 5123,
            "count" : 16908,
            "type" : "SCALAR"
        },
        {
            "bufferView" : 5,
            "componentType" : 5126,
            "count" : 1952,
            "max" : [
                3.123000144958496,
                0,
                2.009000062942505
            ],
            "min" : [
                0.04100000113248825,
                0,
                -0.5420000553131104
            ],
            "type" : "VEC3"
        },
        {
            "bufferView" : 6,
            "componentType" : 5126,
            "count" : 1952,
            "type" : "VEC3"
        },
        {
            "bufferView" : 7,
            "componentType" : 5126,
            "count" : 1952,
            "type" : "VEC4"
        },
        {
            "bufferView" : 8,
            "componentType" : 5126,
            "count" : 1952,
            "type" : "VEC2"
        },
        {
            "bufferView" : 9,
            "componentType" : 5123,
            "count" : 4278,
            "type" : "SCALAR"
        }
    ],
    "bufferViews" : [
        {
            "buffer" : 0,
            "byteLength" : 49764,
            "byteOffset" : 0
        },
        {
            "buffer" : 0,
            "byteLength" : 49764,
            "byteOffset" : 49764
        },
        {
            "buffer" : 0,
            "byteLength" : 66352,
            "byteOffset" : 99528
        },
        {
            "buffer" : 0,
            "byteLength" : 33176,
            "byteOffset" : 165880
        },
        {
            "buffer" : 0,
            "byteLength" : 33816,
            "byteOffset" : 199056
        },
        {
            "buffer" : 0,
            "byteLength" : 23424,
            "byteOffset" : 232872
        },
        {
            "buffer" : 0,
            "byteLength" : 23424,
            "byteOffset" : 256296
        },
        {
            "buffer" : 0,
            "byteLength" : 31232,
            "byteOffset" : 279720
        },
        {
            "buffer" : 0,
            "byteLength" : 15616,
            "byteOffset" : 310952
        },
        {
            "buffer" : 0,
            "byteLength" : 8556,
            "byteOffset" : 326568
        }
    ],
    "buffers" : [
        {
            "byteLength" : 335124,
            "uri" : "data:application/octet-stream;base64,"
        }
    ]
}
