{
    "asset" : {
        "generator" : "Khronos glTF Blender I/O v1.4.40",
        "version" : "2.0"
    },
    "extensionsUsed" : [
        "KHR_lights_punctual"
    ],
    "extensionsRequired" : [
        "KHR_lights_punctual"
    ],
    "extensions" : {
        "KHR_lights_punctual" : {
            "lights" : [
                {
                    "color" : [
                        0.9098436236381531,
                        0.9645521640777588,
                        1
                    ],
                    "intensity" : 100,
                    "type" : "point",
                    "name" : "Point.038"
                }
            ]
        }
    },
    "scene" : 0,
    "scenes" : [
        {
            "name" : "Scene",
            "nodes" : [
                5,
                6
            ]
        }
    ],
    "nodes" : [
        {
            "extensions" : {
                "KHR_lights_punctual" : {
                    "light" : 0
                }
            },
            "name" : "Point.009_Orientation.008_Orientation_Orientation_Orientati_Orientation",
            "rotation" : [
                -0.7071067690849304,
                0,
                0,
                0.7071067690849304
            ]
        },
        {
            "children" : [
                0
            ],
            "name" : "Point.009_Orientation.008_Orientation_Orientation_Orientati",
            "translation" : [
                14.693144798278809,
                3.6838109493255615,
                -14.587509155273438
            ]
        },
        {
            "children" : [
                1
            ],
            "name" : "Point.009_Orientation.008_Orientation_Orientation"
        },
        {
            "children" : [
                2
            ],
            "name" : "Point.009_Orientation.008_Orientation"
        },
        {
            "children" : [
                3
            ],
            "name" : "Point.009_Orientation.008",
            "scale" : [
                1.5442548990249634,
                1.5442548990249634,
                1.5442548990249634
            ],
            "translation" : [
                -40.671138763427734,
                -3.1811211109161377,
                9.953302383422852
            ]
        },
        {
            "children" : [
                4
            ],
            "name" : "Point.009",
            "translation" : [
                23.482027053833008,
                5.571115016937256,
                4.901042938232422
            ]
        },
        {
            "mesh" : 0,
            "name" : "Stem",
            "rotation" : [
                -0.013563004322350025,
                -0.9278284907341003,
                -0.2477983981370926,
                0.2784714102745056
            ],
            "scale" : [
                24.620302200317383,
                24.620302200317383,
                24.62030029296875
            ],
            "translation" : [
                5.079603672027588,
                3.945707321166992,
                -10.237967491149902
            ]
        }
    ],
    "materials" : [
        {
            "doubleSided" : true,
            "name" : "DefaultMaterial",
            "pbrMetallicRoughness" : {
                "baseColorFactor" : [
                    0.6000000238418579,
                    0.6000000238418579,
                    0.6000000238418579,
                    1
                ],
                "metallicFactor" : 0.9900000095367432,
                "roughnessFactor" : 0.16535432636737823
            }
        }
    ],
    "meshes" : [
        {
            "name" : "meshId0_name",
            "primitives" : [
                {
                    "attributes" : {
                        "POSITION" : 0,
                        "NORMAL" : 1,
                        "TEXCOORD_0" : 2
                    },
                    "indices" : 3,
                    "material" : 0
                }
            ]
        }
    ],
    "accessors" : [
        {
            "bufferView" : 0,
            "componentType" : 5126,
            "count" : 4137,
            "max" : [
                0.07397100329399109,
                0.1751679927110672,
                0.048278000205755234
            ],
            "min" : [
                -0.05650300160050392,
                -2.5999999706982635e-05,
                -0.061232998967170715
            ],
            "type" : "VEC3"
        },
        {
            "bufferView" : 1,
            "componentType" : 5126,
            "count" : 4137,
            "type" : "VEC3"
        },
        {
            "bufferView" : 2,
            "componentType" : 5126,
            "count" : 4137,
            "type" : "VEC2"
        },
        {
            "bufferView" : 3,
            "componentType" : 5123,
            "count" : 16908,
            "type" : "SCALAR"
        }
    ],
    "bufferViews" : [
        {
            "buffer" : 0,
            "byteLength" : 49644,
            "byteOffset" : 0
        },
        {
            "buffer" : 0,
            "byteLength" : 49644,
            "byteOffset" : 49644
        },
        {
            "buffer" : 0,
            "byteLength" : 33096,
            "byteOffset" : 99288
        },
        {
            "buffer" : 0,
            "byteLength" : 33816,
            "byteOffset" : 132384
        }
    ],
    "buffers" : [
        {
            "byteLength" : 166200,
            "uri" : "data:application/octet-stream;base64,"
        }
    ]
}
