{
    "asset" : {
        "generator" : "Khronos glTF Blender I/O v1.4.40",
        "version" : "2.0"
    },
    "scene" : 0,
    "scenes" : [
        {
            "name" : "Scene",
            "nodes" : [
                0
            ]
        }
    ],
    "nodes" : [
        {
            "mesh" : 0,
            "name" : "belugosaurus",
            "rotation" : [
                0.7071068286895752,
                0,
                0,
                0.7071067094802856
            ],
            "scale" : [
                0.03000001236796379,
                0.03000001236796379,
                0.03000001236796379
            ],
            "translation" : [
                0,
                14.83707046508789,
                0
            ]
        }
    ],
    "materials" : [
        {
            "doubleSided" : true,
            "name" : "Body_2.001",
            "pbrMetallicRoughness" : {
                "baseColorTexture" : {
                    "index" : 0,
                    "texCoord" : 0
                },
                "metallicFactor" : 0,
                "roughnessFactor" : 0.5
            }
        },
        {
            "doubleSided" : true,
            "name" : "Left_Tooth.001",
            "pbrMetallicRoughness" : {
                "baseColorFactor" : [
                    0.800000011920929,
                    0.800000011920929,
                    0.800000011920929,
                    1
                ],
                "metallicFactor" : 0,
                "roughnessFactor" : 0.5
            }
        },
        {
            "doubleSided" : true,
            "name" : "Right_Tooth.001",
            "pbrMetallicRoughness" : {
                "baseColorFactor" : [
                    0.800000011920929,
                    0.800000011920929,
                    0.800000011920929,
                    1
                ],
                "metallicFactor" : 0,
                "roughnessFactor" : 0.5
            }
        },
        {
            "doubleSided" : true,
            "name" : "Large_Right_Eye.001",
            "pbrMetallicRoughness" : {
                "baseColorFactor" : [
                    0.800000011920929,
                    0.800000011920929,
                    0.800000011920929,
                    1
                ],
                "metallicFactor" : 0,
                "roughnessFactor" : 0.5
            }
        },
        {
            "doubleSided" : true,
            "name" : "Large_Left_Eye.001",
            "pbrMetallicRoughness" : {
                "baseColorFactor" : [
                    0.800000011920929,
                    0.800000011920929,
                    0.800000011920929,
                    1
                ],
                "metallicFactor" : 0,
                "roughnessFactor" : 0.5
            }
        },
        {
            "doubleSided" : true,
            "name" : "Medium_Right_Eye.001",
            "pbrMetallicRoughness" : {
                "baseColorFactor" : [
                    0.800000011920929,
                    0.800000011920929,
                    0.800000011920929,
                    1
                ],
                "metallicFactor" : 0,
                "roughnessFactor" : 0.5
            }
        },
        {
            "doubleSided" : true,
            "name" : "Medium_Left_Eye.001",
            "pbrMetallicRoughness" : {
                "baseColorFactor" : [
                    0.800000011920929,
                    0.800000011920929,
                    0.800000011920929,
                    1
                ],
                "metallicFactor" : 0,
                "roughnessFactor" : 0.5
            }
        },
        {
            "doubleSided" : true,
            "name" : "Small_Left_Eye.001",
            "pbrMetallicRoughness" : {
                "baseColorFactor" : [
                    0.800000011920929,
                    0.800000011920929,
                    0.800000011920929,
                    1
                ],
                "metallicFactor" : 0,
                "roughnessFactor" : 0.5
            }
        },
        {
            "doubleSided" : true,
            "name" : "Small_Right_Eye.001",
            "pbrMetallicRoughness" : {
                "baseColorFactor" : [
                    0.800000011920929,
                    0.800000011920929,
                    0.800000011920929,
                    1
                ],
                "metallicFactor" : 0,
                "roughnessFactor" : 0.5
            }
        }
    ],
    "meshes" : [
        {
            "name" : "belugosaurus",
            "primitives" : [
                {
                    "attributes" : {
                        "POSITION" : 0,
                        "NORMAL" : 1,
                        "TANGENT" : 2,
                        "TEXCOORD_0" : 3
                    },
                    "indices" : 4,
                    "material" : 0
                },
                {
                    "attributes" : {
                        "POSITION" : 5,
                        "NORMAL" : 6,
                        "TANGENT" : 7,
                        "TEXCOORD_0" : 8
                    },
                    "indices" : 9,
                    "material" : 1
                },
                {
                    "attributes" : {
                        "POSITION" : 10,
                        "NORMAL" : 11,
                        "TANGENT" : 12,
                        "TEXCOORD_0" : 13
                    },
                    "indices" : 14,
                    "material" : 2
                },
                {
                    "attributes" : {
                        "POSITION" : 15,
                        "NORMAL" : 16,
                        "TANGENT" : 17,
                        "TEXCOORD_0" : 18
                    },
                    "indices" : 19,
                    "material" : 3
                },
                {
                    "attributes" : {
                        "POSITION" : 20,
                        "NORMAL" : 21,
                        "TANGENT" : 22,
                        "TEXCOORD_0" : 23
                    },
                    "indices" : 24,
                    "material" : 4
                },
                {
                    "attributes" : {
                        "POSITION" : 25,
                        "NORMAL" : 26,
                        "TANGENT" : 27,
                        "TEXCOORD_0" : 28
                    },
                    "indices" : 29,
                    "material" : 5
                },
                {
                    "attributes" : {
                        "POSITION" : 30,
                        "NORMAL" : 31,
                        "TANGENT" : 32,
                        "TEXCOORD_0" : 33
                    },
                    "indices" : 34,
                    "material" : 6
                },
                {
                    "attributes" : {
                        "POSITION" : 35,
                        "NORMAL" : 36,
                        "TANGENT" : 37,
                        "TEXCOORD_0" : 38
                    },
                    "indices" : 39,
                    "material" : 7
                },
                {
                    "attributes" : {
                        "POSITION" : 40,
                        "NORMAL" : 41,
                        "TANGENT" : 42,
                        "TEXCOORD_0" : 43
                    },
                    "indices" : 44,
                    "material" : 8
                }
            ]
        }
    ],
    "textures" : [
        {
            "sampler" : 0,
            "source" : 0
        }
    ],
    "images" : [
        {
            "bufferView" : 5,
            "mimeType" : "image/png",
            "name" : "belugosaurus"
        }
    ],
    "accessors" : [
        {
            "bufferView" : 0,
            "componentType" : 5126,
            "count" : 7223,
            "max" : [
                475.64581298828125,
                453.84942626953125,
                482.5204162597656
            ],
            "min" : [
                -475.6457824707031,
                -453.84942626953125,
                -482.5204162597656
            ],
            "type" : "VEC3"
        },
        {
            "bufferView" : 1,
            "componentType" : 5126,
            "count" : 7223,
            "type" : "VEC3"
        },
        {
            "bufferView" : 2,
            "componentType" : 5126,
            "count" : 7223,
            "type" : "VEC4"
        },
        {
            "bufferView" : 3,
            "componentType" : 5126,
            "count" : 7223,
            "type" : "VEC2"
        },
        {
            "bufferView" : 4,
            "componentType" : 5123,
            "count" : 40740,
            "type" : "SCALAR"
        },
        {
            "bufferView" : 6,
            "componentType" : 5126,
            "count" : 326,
            "max" : [
                -77.56797790527344,
                -280.4791564941406,
                27.947893142700195
            ],
            "min" : [
                -106.71183013916016,
                -318.6684265136719,
                -23.059280395507812
            ],
            "type" : "VEC3"
        },
        {
            "bufferView" : 7,
            "componentType" : 5126,
            "count" : 326,
            "type" : "VEC3"
        },
        {
            "bufferView" : 8,
            "componentType" : 5126,
            "count" : 326,
            "type" : "VEC4"
        },
        {
            "bufferView" : 9,
            "componentType" : 5126,
            "count" : 326,
            "type" : "VEC2"
        },
        {
            "bufferView" : 10,
            "componentType" : 5123,
            "count" : 1680,
            "type" : "SCALAR"
        },
        {
            "bufferView" : 11,
            "componentType" : 5126,
            "count" : 289,
            "max" : [
                106.7043685913086,
                -280.3733215332031,
                27.90800666809082
            ],
            "min" : [
                77.65382385253906,
                -318.6107482910156,
                -23.09465980529785
            ],
            "type" : "VEC3"
        },
        {
            "bufferView" : 12,
            "componentType" : 5126,
            "count" : 289,
            "type" : "VEC3"
        },
        {
            "bufferView" : 13,
            "componentType" : 5126,
            "count" : 289,
            "type" : "VEC4"
        },
        {
            "bufferView" : 14,
            "componentType" : 5126,
            "count" : 289,
            "type" : "VEC2"
        },
        {
            "bufferView" : 15,
            "componentType" : 5123,
            "count" : 1620,
            "type" : "SCALAR"
        },
        {
            "bufferView" : 16,
            "componentType" : 5126,
            "count" : 288,
            "max" : [
                251.2965087890625,
                -136.49200439453125,
                -142.78538513183594
            ],
            "min" : [
                153.212890625,
                -234.63589477539062,
                -240.73968505859375
            ],
            "type" : "VEC3"
        },
        {
            "bufferView" : 17,
            "componentType" : 5126,
            "count" : 288,
            "type" : "VEC3"
        },
        {
            "bufferView" : 18,
            "componentType" : 5126,
            "count" : 288,
            "type" : "VEC4"
        },
        {
            "bufferView" : 19,
            "componentType" : 5126,
            "count" : 288,
            "type" : "VEC2"
        },
        {
            "bufferView" : 20,
            "componentType" : 5123,
            "count" : 1626,
            "type" : "SCALAR"
        },
        {
            "bufferView" : 21,
            "componentType" : 5126,
            "count" : 261,
            "max" : [
                -153.32835388183594,
                -136.6276397705078,
                -143.11898803710938
            ],
            "min" : [
                -250.59815979003906,
                -234.73587036132812,
                -240.7476043701172
            ],
            "type" : "VEC3"
        },
        {
            "bufferView" : 22,
            "componentType" : 5126,
            "count" : 261,
            "type" : "VEC3"
        },
        {
            "bufferView" : 23,
            "componentType" : 5126,
            "count" : 261,
            "type" : "VEC4"
        },
        {
            "bufferView" : 24,
            "componentType" : 5126,
            "count" : 261,
            "type" : "VEC2"
        },
        {
            "bufferView" : 25,
            "componentType" : 5123,
            "count" : 1452,
            "type" : "SCALAR"
        },
        {
            "bufferView" : 26,
            "componentType" : 5126,
            "count" : 280,
            "max" : [
                224.0718231201172,
                -204.82469177246094,
                -109.18101501464844
            ],
            "min" : [
                160.40696716308594,
                -268.30706787109375,
                -172.82647705078125
            ],
            "type" : "VEC3"
        },
        {
            "bufferView" : 27,
            "componentType" : 5126,
            "count" : 280,
            "type" : "VEC3"
        },
        {
            "bufferView" : 28,
            "componentType" : 5126,
            "count" : 280,
            "type" : "VEC4"
        },
        {
            "bufferView" : 29,
            "componentType" : 5126,
            "count" : 280,
            "type" : "VEC2"
        },
        {
            "bufferView" : 30,
            "componentType" : 5123,
            "count" : 1542,
            "type" : "SCALAR"
        },
        {
            "bufferView" : 31,
            "componentType" : 5126,
            "count" : 258,
            "max" : [
                -160.3563232421875,
                -204.75765991210938,
                -109.06371307373047
            ],
            "min" : [
                -224.00503540039062,
                -268.3584899902344,
                -172.7210693359375
            ],
            "type" : "VEC3"
        },
        {
            "bufferView" : 32,
            "componentType" : 5126,
            "count" : 258,
            "type" : "VEC3"
        },
        {
            "bufferView" : 33,
            "componentType" : 5126,
            "count" : 258,
            "type" : "VEC4"
        },
        {
            "bufferView" : 34,
            "componentType" : 5126,
            "count" : 258,
            "type" : "VEC2"
        },
        {
            "bufferView" : 35,
            "componentType" : 5123,
            "count" : 1434,
            "type" : "SCALAR"
        },
        {
            "bufferView" : 36,
            "componentType" : 5126,
            "count" : 193,
            "max" : [
                -164.6876983642578,
                -250.6510009765625,
                -89.97108459472656
            ],
            "min" : [
                -197.7549591064453,
                -283.7088623046875,
                -123.13194274902344
            ],
            "type" : "VEC3"
        },
        {
            "bufferView" : 37,
            "componentType" : 5126,
            "count" : 193,
            "type" : "VEC3"
        },
        {
            "bufferView" : 38,
            "componentType" : 5126,
            "count" : 193,
            "type" : "VEC4"
        },
        {
            "bufferView" : 39,
            "componentType" : 5126,
            "count" : 193,
            "type" : "VEC2"
        },
        {
            "bufferView" : 40,
            "componentType" : 5123,
            "count" : 1038,
            "type" : "SCALAR"
        },
        {
            "bufferView" : 41,
            "componentType" : 5126,
            "count" : 194,
            "max" : [
                197.79531860351562,
                -250.75523376464844,
                -89.90467834472656
            ],
            "min" : [
                164.6119842529297,
                -283.8048095703125,
                -123.1224365234375
            ],
            "type" : "VEC3"
        },
        {
            "bufferView" : 42,
            "componentType" : 5126,
            "count" : 194,
            "type" : "VEC3"
        },
        {
            "bufferView" : 43,
            "componentType" : 5126,
            "count" : 194,
            "type" : "VEC4"
        },
        {
            "bufferView" : 44,
            "componentType" : 5126,
            "count" : 194,
            "type" : "VEC2"
        },
        {
            "bufferView" : 45,
            "componentType" : 5123,
            "count" : 1104,
            "type" : "SCALAR"
        }
    ],
    "bufferViews" : [
        {
            "buffer" : 0,
            "byteLength" : 86676,
            "byteOffset" : 0
        },
        {
            "buffer" : 0,
            "byteLength" : 86676,
            "byteOffset" : 86676
        },
        {
            "buffer" : 0,
            "byteLength" : 115568,
            "byteOffset" : 173352
        },
        {
            "buffer" : 0,
            "byteLength" : 57784,
            "byteOffset" : 288920
        },
        {
            "buffer" : 0,
            "byteLength" : 81480,
            "byteOffset" : 346704
        },
        {
            "buffer" : 0,
            "byteLength" : 2066285,
            "byteOffset" : 428184
        },
        {
            "buffer" : 0,
            "byteLength" : 3912,
            "byteOffset" : 2494472
        },
        {
            "buffer" : 0,
            "byteLength" : 3912,
            "byteOffset" : 2498384
        },
        {
            "buffer" : 0,
            "byteLength" : 5216,
            "byteOffset" : 2502296
        },
        {
            "buffer" : 0,
            "byteLength" : 2608,
            "byteOffset" : 2507512
        },
        {
            "buffer" : 0,
            "byteLength" : 3360,
            "byteOffset" : 2510120
        },
        {
            "buffer" : 0,
            "byteLength" : 3468,
            "byteOffset" : 2513480
        },
        {
            "buffer" : 0,
            "byteLength" : 3468,
            "byteOffset" : 2516948
        },
        {
            "buffer" : 0,
            "byteLength" : 4624,
            "byteOffset" : 2520416
        },
        {
            "buffer" : 0,
            "byteLength" : 2312,
            "byteOffset" : 2525040
        },
        {
            "buffer" : 0,
            "byteLength" : 3240,
            "byteOffset" : 2527352
        },
        {
            "buffer" : 0,
            "byteLength" : 3456,
            "byteOffset" : 2530592
        },
        {
            "buffer" : 0,
            "byteLength" : 3456,
            "byteOffset" : 2534048
        },
        {
            "buffer" : 0,
            "byteLength" : 4608,
            "byteOffset" : 2537504
        },
        {
            "buffer" : 0,
            "byteLength" : 2304,
            "byteOffset" : 2542112
        },
        {
            "buffer" : 0,
            "byteLength" : 3252,
            "byteOffset" : 2544416
        },
        {
            "buffer" : 0,
            "byteLength" : 3132,
            "byteOffset" : 2547668
        },
        {
            "buffer" : 0,
            "byteLength" : 3132,
            "byteOffset" : 2550800
        },
        {
            "buffer" : 0,
            "byteLength" : 4176,
            "byteOffset" : 2553932
        },
        {
            "buffer" : 0,
            "byteLength" : 2088,
            "byteOffset" : 2558108
        },
        {
            "buffer" : 0,
            "byteLength" : 2904,
            "byteOffset" : 2560196
        },
        {
            "buffer" : 0,
            "byteLength" : 3360,
            "byteOffset" : 2563100
        },
        {
            "buffer" : 0,
            "byteLength" : 3360,
            "byteOffset" : 2566460
        },
        {
            "buffer" : 0,
            "byteLength" : 4480,
            "byteOffset" : 2569820
        },
        {
            "buffer" : 0,
            "byteLength" : 2240,
            "byteOffset" : 2574300
        },
        {
            "buffer" : 0,
            "byteLength" : 3084,
            "byteOffset" : 2576540
        },
        {
            "buffer" : 0,
            "byteLength" : 3096,
            "byteOffset" : 2579624
        },
        {
            "buffer" : 0,
            "byteLength" : 3096,
            "byteOffset" : 2582720
        },
        {
            "buffer" : 0,
            "byteLength" : 4128,
            "byteOffset" : 2585816
        },
        {
            "buffer" : 0,
            "byteLength" : 2064,
            "byteOffset" : 2589944
        },
        {
            "buffer" : 0,
            "byteLength" : 2868,
            "byteOffset" : 2592008
        },
        {
            "buffer" : 0,
            "byteLength" : 2316,
            "byteOffset" : 2594876
        },
        {
            "buffer" : 0,
            "byteLength" : 2316,
            "byteOffset" : 2597192
        },
        {
            "buffer" : 0,
            "byteLength" : 3088,
            "byteOffset" : 2599508
        },
        {
            "buffer" : 0,
            "byteLength" : 1544,
            "byteOffset" : 2602596
        },
        {
            "buffer" : 0,
            "byteLength" : 2076,
            "byteOffset" : 2604140
        },
        {
            "buffer" : 0,
            "byteLength" : 2328,
            "byteOffset" : 2606216
        },
        {
            "buffer" : 0,
            "byteLength" : 2328,
            "byteOffset" : 2608544
        },
        {
            "buffer" : 0,
            "byteLength" : 3104,
            "byteOffset" : 2610872
        },
        {
            "buffer" : 0,
            "byteLength" : 1552,
            "byteOffset" : 2613976
        },
        {
            "buffer" : 0,
            "byteLength" : 2208,
            "byteOffset" : 2615528
        }
    ],
    "samplers" : [
        {
            "magFilter" : 9729,
            "minFilter" : 9986
        }
    ],
    "buffers" : [
        {
            "byteLength" : 2617736,
            "uri" : "data:application/octet-stream;base64,"
        }
    ]
}
